<mxfile host="app.diagrams.net" agent="Mozilla/5.0 (Macintosh; Intel Mac OS X 10_15_7) AppleWebKit/537.36 (KHTML, like Gecko) Chrome/124.0.0.0 Safari/537.36" version="24.7.7">
  <diagram name="Page-1" id="Pclxy4RzkomqtjtzhHFq">
    <mxGraphModel dx="1434" dy="820" grid="0" gridSize="10" guides="1" tooltips="1" connect="1" arrows="1" fold="1" page="1" pageScale="1" pageWidth="1654" pageHeight="1169" math="0" shadow="0">
      <root>
        <mxCell id="0" />
        <mxCell id="1" parent="0" />
        <mxCell id="3KuL3Yd0wl93Gxt4cAOc-3" value="" style="edgeStyle=orthogonalEdgeStyle;rounded=1;orthogonalLoop=1;jettySize=auto;html=1;fontFamily=Helvetica;fontSize=12;fontColor=default;curved=0;dashed=1;endArrow=none;endFill=0;" edge="1" parent="1" source="3KuL3Yd0wl93Gxt4cAOc-1" target="3KuL3Yd0wl93Gxt4cAOc-2">
          <mxGeometry relative="1" as="geometry" />
        </mxCell>
        <mxCell id="3KuL3Yd0wl93Gxt4cAOc-1" value="v 1.0" style="ellipse;whiteSpace=wrap;html=1;fillColor=#dae8fc;strokeColor=#6c8ebf;labelPosition=center;verticalLabelPosition=top;align=center;verticalAlign=bottom;" vertex="1" parent="1">
          <mxGeometry x="176" y="109" width="40" height="40" as="geometry" />
        </mxCell>
        <mxCell id="3KuL3Yd0wl93Gxt4cAOc-5" value="" style="edgeStyle=orthogonalEdgeStyle;shape=connector;curved=0;rounded=1;orthogonalLoop=1;jettySize=auto;html=1;dashed=1;strokeColor=default;align=center;verticalAlign=middle;fontFamily=Helvetica;fontSize=12;fontColor=default;labelBackgroundColor=default;endArrow=none;endFill=0;" edge="1" parent="1" source="3KuL3Yd0wl93Gxt4cAOc-2" target="3KuL3Yd0wl93Gxt4cAOc-4">
          <mxGeometry relative="1" as="geometry" />
        </mxCell>
        <mxCell id="3KuL3Yd0wl93Gxt4cAOc-2" value="v 2.0" style="ellipse;whiteSpace=wrap;html=1;fillColor=#dae8fc;strokeColor=#6c8ebf;labelPosition=center;verticalLabelPosition=top;align=center;verticalAlign=bottom;" vertex="1" parent="1">
          <mxGeometry x="296" y="109" width="40" height="40" as="geometry" />
        </mxCell>
        <mxCell id="3KuL3Yd0wl93Gxt4cAOc-7" value="" style="edgeStyle=orthogonalEdgeStyle;shape=connector;curved=0;rounded=1;orthogonalLoop=1;jettySize=auto;html=1;dashed=1;strokeColor=default;align=center;verticalAlign=middle;fontFamily=Helvetica;fontSize=12;fontColor=default;labelBackgroundColor=default;endArrow=none;endFill=0;" edge="1" parent="1" source="3KuL3Yd0wl93Gxt4cAOc-4" target="3KuL3Yd0wl93Gxt4cAOc-6">
          <mxGeometry relative="1" as="geometry" />
        </mxCell>
        <mxCell id="3KuL3Yd0wl93Gxt4cAOc-4" value="v 2.1" style="ellipse;whiteSpace=wrap;html=1;fillColor=#dae8fc;strokeColor=#6c8ebf;labelPosition=center;verticalLabelPosition=top;align=center;verticalAlign=bottom;" vertex="1" parent="1">
          <mxGeometry x="588" y="109" width="40" height="40" as="geometry" />
        </mxCell>
        <mxCell id="3KuL3Yd0wl93Gxt4cAOc-11" value="" style="edgeStyle=orthogonalEdgeStyle;shape=connector;curved=0;rounded=1;orthogonalLoop=1;jettySize=auto;html=1;dashed=1;strokeColor=default;align=center;verticalAlign=middle;fontFamily=Helvetica;fontSize=12;fontColor=default;labelBackgroundColor=default;endArrow=none;endFill=0;" edge="1" parent="1" source="3KuL3Yd0wl93Gxt4cAOc-6" target="3KuL3Yd0wl93Gxt4cAOc-10">
          <mxGeometry relative="1" as="geometry" />
        </mxCell>
        <mxCell id="3KuL3Yd0wl93Gxt4cAOc-6" value="v 3.0" style="ellipse;whiteSpace=wrap;html=1;fillColor=#dae8fc;strokeColor=#6c8ebf;labelPosition=center;verticalLabelPosition=top;align=center;verticalAlign=bottom;" vertex="1" parent="1">
          <mxGeometry x="708" y="109" width="40" height="40" as="geometry" />
        </mxCell>
        <mxCell id="3KuL3Yd0wl93Gxt4cAOc-10" value="Master" style="whiteSpace=wrap;html=1;verticalAlign=middle;fillColor=#dae8fc;strokeColor=#6c8ebf;labelPosition=center;verticalLabelPosition=middle;align=center;" vertex="1" parent="1">
          <mxGeometry x="880" y="109" width="80" height="40" as="geometry" />
        </mxCell>
        <mxCell id="3KuL3Yd0wl93Gxt4cAOc-14" value="" style="edgeStyle=orthogonalEdgeStyle;shape=connector;curved=0;rounded=1;orthogonalLoop=1;jettySize=auto;html=1;dashed=1;strokeColor=#9673a6;align=center;verticalAlign=middle;fontFamily=Helvetica;fontSize=12;fontColor=default;labelBackgroundColor=default;endArrow=none;endFill=0;fillColor=#e1d5e7;" edge="1" parent="1" source="3KuL3Yd0wl93Gxt4cAOc-12" target="3KuL3Yd0wl93Gxt4cAOc-13">
          <mxGeometry relative="1" as="geometry" />
        </mxCell>
        <mxCell id="3KuL3Yd0wl93Gxt4cAOc-17" style="edgeStyle=orthogonalEdgeStyle;shape=connector;curved=0;rounded=1;orthogonalLoop=1;jettySize=auto;html=1;entryX=0.5;entryY=1;entryDx=0;entryDy=0;dashed=1;strokeColor=default;align=center;verticalAlign=middle;fontFamily=Helvetica;fontSize=12;fontColor=default;labelBackgroundColor=default;endArrow=none;endFill=0;" edge="1" parent="1" source="3KuL3Yd0wl93Gxt4cAOc-12" target="3KuL3Yd0wl93Gxt4cAOc-1">
          <mxGeometry relative="1" as="geometry" />
        </mxCell>
        <mxCell id="3KuL3Yd0wl93Gxt4cAOc-12" value="" style="ellipse;whiteSpace=wrap;html=1;fillColor=#e1d5e7;strokeColor=#9673a6;labelPosition=center;verticalLabelPosition=top;align=center;verticalAlign=bottom;" vertex="1" parent="1">
          <mxGeometry x="224" y="197" width="40" height="40" as="geometry" />
        </mxCell>
        <mxCell id="3KuL3Yd0wl93Gxt4cAOc-16" value="" style="edgeStyle=orthogonalEdgeStyle;shape=connector;curved=0;rounded=1;orthogonalLoop=1;jettySize=auto;html=1;dashed=1;strokeColor=#9673a6;align=center;verticalAlign=middle;fontFamily=Helvetica;fontSize=12;fontColor=default;labelBackgroundColor=default;endArrow=none;endFill=0;fillColor=#e1d5e7;" edge="1" parent="1" source="3KuL3Yd0wl93Gxt4cAOc-13" target="3KuL3Yd0wl93Gxt4cAOc-15">
          <mxGeometry relative="1" as="geometry" />
        </mxCell>
        <mxCell id="3KuL3Yd0wl93Gxt4cAOc-13" value="" style="ellipse;whiteSpace=wrap;html=1;fillColor=#e1d5e7;strokeColor=#9673a6;labelPosition=center;verticalLabelPosition=top;align=center;verticalAlign=bottom;" vertex="1" parent="1">
          <mxGeometry x="398" y="197" width="40" height="40" as="geometry" />
        </mxCell>
        <mxCell id="3KuL3Yd0wl93Gxt4cAOc-18" style="edgeStyle=orthogonalEdgeStyle;shape=connector;curved=0;rounded=1;orthogonalLoop=1;jettySize=auto;html=1;entryX=0.5;entryY=1;entryDx=0;entryDy=0;dashed=1;strokeColor=default;align=center;verticalAlign=middle;fontFamily=Helvetica;fontSize=12;fontColor=default;labelBackgroundColor=default;endArrow=none;endFill=0;" edge="1" parent="1" source="3KuL3Yd0wl93Gxt4cAOc-15" target="3KuL3Yd0wl93Gxt4cAOc-4">
          <mxGeometry relative="1" as="geometry" />
        </mxCell>
        <mxCell id="3KuL3Yd0wl93Gxt4cAOc-22" style="edgeStyle=orthogonalEdgeStyle;shape=connector;curved=0;rounded=1;orthogonalLoop=1;jettySize=auto;html=1;entryX=0;entryY=0.5;entryDx=0;entryDy=0;dashed=1;strokeColor=default;align=center;verticalAlign=middle;fontFamily=Helvetica;fontSize=12;fontColor=default;labelBackgroundColor=default;endArrow=none;endFill=0;" edge="1" parent="1" source="3KuL3Yd0wl93Gxt4cAOc-15" target="3KuL3Yd0wl93Gxt4cAOc-20">
          <mxGeometry relative="1" as="geometry" />
        </mxCell>
        <mxCell id="3KuL3Yd0wl93Gxt4cAOc-15" value="" style="ellipse;whiteSpace=wrap;html=1;fillColor=#e1d5e7;strokeColor=#9673a6;labelPosition=center;verticalLabelPosition=top;align=center;verticalAlign=bottom;" vertex="1" parent="1">
          <mxGeometry x="518" y="197" width="40" height="40" as="geometry" />
        </mxCell>
        <mxCell id="3KuL3Yd0wl93Gxt4cAOc-20" value="Feature team" style="whiteSpace=wrap;html=1;verticalAlign=middle;fillColor=#e1d5e7;strokeColor=#9673a6;labelPosition=center;verticalLabelPosition=middle;align=center;" vertex="1" parent="1">
          <mxGeometry x="880" y="197" width="80" height="40" as="geometry" />
        </mxCell>
      </root>
    </mxGraphModel>
  </diagram>
</mxfile>
